<mxfile host="app.diagrams.net" modified="2024-02-21T09:39:20.629Z" agent="Mozilla/5.0 (X11; Linux x86_64) AppleWebKit/537.36 (KHTML, like Gecko) Chrome/121.0.0.0 Safari/537.36" version="23.1.5" etag="bC1I7iIrWfWXt90wtLN1" type="github">
  <diagram name="Page-1" id="KsoEdr8mvibxt4z6LNhe">
    <mxGraphModel>
      <root>
        <mxCell id="0" />
        <mxCell id="1" parent="0" />
      </root>
    </mxGraphModel>
  </diagram>
</mxfile>
